<?xml version="1.0" encoding="UTF-8"?>
<svg xmlns="http://www.w3.org/2000/svg" xmlns:xlink="http://www.w3.org/1999/xlink" width="398pt" height="80pt" viewBox="0 0 398 80" version="1.1">
<g id="surface1">
<path style=" stroke:none;fill-rule:nonzero;fill:rgb(0%,0%,0%);fill-opacity:1;" d="M 43.34375 17.925781 C 43.4375 17.964844 43.5625 17.953125 43.605469 17.910156 C 43.660156 17.867188 43.578125 17.828125 43.425781 17.839844 C 43.273438 17.839844 43.230469 17.882812 43.34375 17.925781 Z M 43.34375 17.925781 "/>
<path style=" stroke:none;fill-rule:nonzero;fill:rgb(0%,0%,0%);fill-opacity:1;" d="M 40.980469 18.480469 C 41.074219 18.523438 41.203125 18.507812 41.242188 18.46875 C 41.296875 18.425781 41.214844 18.382812 41.0625 18.398438 C 40.910156 18.398438 40.867188 18.441406 40.980469 18.480469 Z M 40.980469 18.480469 "/>
<path style=" stroke:none;fill-rule:nonzero;fill:rgb(0%,0%,0%);fill-opacity:1;" d="M 39.171875 18.898438 C 39.269531 18.941406 39.394531 18.925781 39.4375 18.886719 C 39.492188 18.84375 39.40625 18.800781 39.253906 18.816406 C 39.101562 18.816406 39.058594 18.859375 39.171875 18.898438 Z M 39.171875 18.898438 "/>
<path style=" stroke:none;fill-rule:nonzero;fill:rgb(0%,0%,0%);fill-opacity:1;" d="M 45.84375 18.898438 C 45.941406 18.941406 46.066406 18.925781 46.109375 18.886719 C 46.164062 18.84375 46.082031 18.800781 45.925781 18.816406 C 45.773438 18.816406 45.734375 18.859375 45.84375 18.898438 Z M 45.84375 18.898438 "/>
<path style=" stroke:none;fill-rule:nonzero;fill:rgb(0%,0%,0%);fill-opacity:1;" d="M 45.289062 19.039062 C 45.386719 19.082031 45.511719 19.066406 45.550781 19.023438 C 45.609375 18.984375 45.523438 18.941406 45.371094 18.957031 C 45.21875 18.957031 45.175781 18.996094 45.289062 19.039062 Z M 45.289062 19.039062 "/>
<path style=" stroke:none;fill-rule:nonzero;fill:rgb(0%,0%,0%);fill-opacity:1;" d="M 37.363281 19.316406 C 37.460938 19.359375 37.585938 19.34375 37.628906 19.304688 C 37.683594 19.261719 37.601562 19.21875 37.449219 19.234375 C 37.296875 19.234375 37.253906 19.277344 37.363281 19.316406 Z M 37.363281 19.316406 "/>
<path style=" stroke:none;fill-rule:nonzero;fill:rgb(0%,0%,0%);fill-opacity:1;" d="M 44.035156 19.316406 C 44.132812 19.359375 44.257812 19.34375 44.300781 19.304688 C 44.355469 19.261719 44.273438 19.21875 44.121094 19.234375 C 43.96875 19.234375 43.925781 19.277344 44.035156 19.316406 Z M 44.035156 19.316406 "/>
<path style=" stroke:none;fill-rule:nonzero;fill:rgb(0%,0%,0%);fill-opacity:1;" d="M 43.480469 19.457031 C 43.578125 19.5 43.703125 19.484375 43.746094 19.441406 C 43.800781 19.402344 43.71875 19.359375 43.5625 19.375 C 43.410156 19.375 43.371094 19.414062 43.480469 19.457031 Z M 43.480469 19.457031 "/>
<path style=" stroke:none;fill-rule:nonzero;fill:rgb(0%,0%,0%);fill-opacity:1;" d="M 41.671875 19.875 C 41.769531 19.917969 41.894531 19.902344 41.9375 19.859375 C 41.992188 19.820312 41.910156 19.777344 41.757812 19.792969 C 41.605469 19.792969 41.5625 19.832031 41.671875 19.875 Z M 41.671875 19.875 "/>
<path style=" stroke:none;fill-rule:nonzero;fill:rgb(0%,0%,0%);fill-opacity:1;" d="M 41.117188 20.015625 C 41.214844 20.054688 41.339844 20.042969 41.382812 20 C 41.4375 19.957031 41.355469 19.917969 41.203125 19.929688 C 41.046875 19.929688 41.007812 19.972656 41.117188 20.015625 Z M 41.117188 20.015625 "/>
<path style=" stroke:none;fill-rule:nonzero;fill:rgb(0%,0%,0%);fill-opacity:1;" d="M 47.09375 20.152344 C 47.191406 20.195312 47.316406 20.179688 47.359375 20.140625 C 47.414062 20.097656 47.332031 20.054688 47.179688 20.070312 C 47.027344 20.070312 46.984375 20.113281 47.09375 20.152344 Z M 47.09375 20.152344 "/>
<path style=" stroke:none;fill-rule:nonzero;fill:rgb(0%,0%,0%);fill-opacity:1;" d="M 39.867188 20.292969 C 39.964844 20.335938 40.089844 20.320312 40.128906 20.277344 C 40.1875 20.238281 40.101562 20.195312 39.949219 20.207031 C 39.796875 20.207031 39.753906 20.25 39.867188 20.292969 Z M 39.867188 20.292969 "/>
<path style=" stroke:none;fill-rule:nonzero;fill:rgb(0%,0%,0%);fill-opacity:1;" d="M 46.539062 20.292969 C 46.636719 20.335938 46.761719 20.320312 46.804688 20.277344 C 46.859375 20.238281 46.773438 20.195312 46.621094 20.207031 C 46.46875 20.207031 46.429688 20.25 46.539062 20.292969 Z M 46.539062 20.292969 "/>
<path style=" stroke:none;fill-rule:nonzero;fill:rgb(0%,0%,0%);fill-opacity:1;" d="M 39.3125 20.433594 C 39.40625 20.472656 39.53125 20.460938 39.574219 20.417969 C 39.628906 20.375 39.546875 20.335938 39.394531 20.347656 C 39.242188 20.347656 39.199219 20.390625 39.3125 20.433594 Z M 39.3125 20.433594 "/>
<path style=" stroke:none;fill-rule:nonzero;fill:rgb(0%,0%,0%);fill-opacity:1;" d="M 45.984375 20.433594 C 46.082031 20.472656 46.207031 20.460938 46.246094 20.417969 C 46.300781 20.375 46.21875 20.335938 46.066406 20.347656 C 45.914062 20.347656 45.871094 20.390625 45.984375 20.433594 Z M 45.984375 20.433594 "/>
<path style=" stroke:none;fill-rule:nonzero;fill:rgb(0%,0%,0%);fill-opacity:1;" d="M 45.289062 20.570312 C 45.371094 20.597656 45.539062 20.597656 45.636719 20.570312 C 45.71875 20.527344 45.648438 20.5 45.453125 20.5 C 45.261719 20.5 45.191406 20.527344 45.289062 20.570312 Z M 45.289062 20.570312 "/>
<path style=" stroke:none;fill-rule:nonzero;fill:rgb(0%,0%,0%);fill-opacity:1;" d="M 38.058594 20.710938 C 38.15625 20.753906 38.28125 20.738281 38.324219 20.695312 C 38.378906 20.65625 38.296875 20.613281 38.144531 20.625 C 37.988281 20.625 37.949219 20.667969 38.058594 20.710938 Z M 38.058594 20.710938 "/>
<path style=" stroke:none;fill-rule:nonzero;fill:rgb(0%,0%,0%);fill-opacity:1;" d="M 44.730469 20.710938 C 44.828125 20.753906 44.953125 20.738281 44.996094 20.695312 C 45.050781 20.65625 44.96875 20.613281 44.816406 20.625 C 44.664062 20.625 44.621094 20.667969 44.730469 20.710938 Z M 44.730469 20.710938 "/>
<path style=" stroke:none;fill-rule:nonzero;fill:rgb(0%,0%,0%);fill-opacity:1;" d="M 37.503906 20.847656 C 37.601562 20.890625 37.726562 20.878906 37.769531 20.835938 C 37.824219 20.792969 37.738281 20.753906 37.585938 20.765625 C 37.433594 20.765625 37.390625 20.808594 37.503906 20.847656 Z M 37.503906 20.847656 "/>
<path style=" stroke:none;fill-rule:nonzero;fill:rgb(0%,0%,0%);fill-opacity:1;" d="M 44.175781 20.847656 C 44.273438 20.890625 44.398438 20.878906 44.441406 20.835938 C 44.496094 20.792969 44.414062 20.753906 44.257812 20.765625 C 44.105469 20.765625 44.066406 20.808594 44.175781 20.847656 Z M 44.175781 20.847656 "/>
<path style=" stroke:none;fill-rule:nonzero;fill:rgb(0%,0%,0%);fill-opacity:1;" d="M 43.480469 20.988281 C 43.5625 21.015625 43.730469 21.015625 43.828125 20.988281 C 43.910156 20.945312 43.84375 20.917969 43.648438 20.917969 C 43.453125 20.917969 43.382812 20.945312 43.480469 20.988281 Z M 43.480469 20.988281 "/>
<path style=" stroke:none;fill-rule:nonzero;fill:rgb(0%,0%,0%);fill-opacity:1;" d="M 42.925781 21.128906 C 43.023438 21.167969 43.148438 21.15625 43.1875 21.113281 C 43.246094 21.074219 43.160156 21.03125 43.007812 21.042969 C 42.855469 21.042969 42.8125 21.085938 42.925781 21.128906 Z M 42.925781 21.128906 "/>
<path style=" stroke:none;fill-rule:nonzero;fill:rgb(0%,0%,0%);fill-opacity:1;" d="M 35.695312 21.265625 C 35.792969 21.308594 35.917969 21.296875 35.960938 21.253906 C 36.015625 21.210938 35.933594 21.167969 35.78125 21.183594 C 35.628906 21.183594 35.585938 21.226562 35.695312 21.265625 Z M 35.695312 21.265625 "/>
<path style=" stroke:none;fill-rule:nonzero;fill:rgb(0%,0%,0%);fill-opacity:1;" d="M 42.367188 21.265625 C 42.464844 21.308594 42.589844 21.296875 42.632812 21.253906 C 42.6875 21.210938 42.605469 21.167969 42.453125 21.183594 C 42.300781 21.183594 42.257812 21.226562 42.367188 21.265625 Z M 42.367188 21.265625 "/>
<path style=" stroke:none;fill-rule:nonzero;fill:rgb(0%,0%,0%);fill-opacity:1;" d="M 35.140625 21.40625 C 35.238281 21.449219 35.363281 21.433594 35.40625 21.394531 C 35.460938 21.351562 35.375 21.308594 35.222656 21.324219 C 35.070312 21.324219 35.03125 21.363281 35.140625 21.40625 Z M 35.140625 21.40625 "/>
<path style=" stroke:none;fill-rule:nonzero;fill:rgb(0%,0%,0%);fill-opacity:1;" d="M 41.285156 21.449219 C 41.007812 21.53125 40.992188 21.558594 41.214844 21.558594 C 41.367188 21.558594 41.644531 21.503906 41.839844 21.449219 C 42.117188 21.363281 42.132812 21.335938 41.910156 21.335938 C 41.757812 21.335938 41.480469 21.394531 41.285156 21.449219 Z M 41.285156 21.449219 "/>
<path style=" stroke:none;fill-rule:nonzero;fill:rgb(0%,0%,0%);fill-opacity:1;" d="M 40.730469 23.132812 C 36.863281 24.039062 33.695312 24.792969 33.667969 24.792969 C 33.652344 24.792969 33.652344 31.726562 33.667969 40.207031 C 33.707031 55.640625 33.707031 55.640625 34 56.28125 C 34.417969 57.171875 35.222656 58.023438 36.058594 58.46875 L 36.765625 58.84375 L 40.535156 58.886719 C 44.078125 58.925781 44.328125 58.914062 45.078125 58.636719 C 46.066406 58.257812 47.027344 57.355469 47.511719 56.296875 L 47.886719 55.5 L 47.929688 38.46875 C 47.941406 29.109375 47.914062 21.449219 47.859375 21.460938 C 47.789062 21.476562 44.59375 22.226562 40.730469 23.132812 Z M 40.730469 23.132812 "/>
<path style=" stroke:none;fill-rule:nonzero;fill:rgb(0%,0%,0%);fill-opacity:1;" d="M 33.890625 21.683594 C 33.988281 21.726562 34.113281 21.714844 34.152344 21.671875 C 34.210938 21.628906 34.125 21.585938 33.972656 21.601562 C 33.820312 21.601562 33.777344 21.644531 33.890625 21.683594 Z M 33.890625 21.683594 "/>
<path style=" stroke:none;fill-rule:nonzero;fill:rgb(0%,0%,0%);fill-opacity:1;" d="M 40.5625 21.683594 C 40.660156 21.726562 40.785156 21.714844 40.824219 21.671875 C 40.882812 21.628906 40.796875 21.585938 40.644531 21.601562 C 40.492188 21.601562 40.449219 21.644531 40.5625 21.683594 Z M 40.5625 21.683594 "/>
<path style=" stroke:none;fill-rule:nonzero;fill:rgb(0%,0%,0%);fill-opacity:1;" d="M 40.003906 21.824219 C 40.101562 21.867188 40.226562 21.851562 40.269531 21.8125 C 40.324219 21.769531 40.242188 21.726562 40.089844 21.742188 C 39.9375 21.742188 39.894531 21.78125 40.003906 21.824219 Z M 40.003906 21.824219 "/>
<path style=" stroke:none;fill-rule:nonzero;fill:rgb(0%,0%,0%);fill-opacity:1;" d="M 39.3125 21.964844 C 39.394531 21.992188 39.5625 21.992188 39.660156 21.964844 C 39.742188 21.921875 39.671875 21.894531 39.476562 21.894531 C 39.28125 21.894531 39.214844 21.921875 39.3125 21.964844 Z M 39.3125 21.964844 "/>
<path style=" stroke:none;fill-rule:nonzero;fill:rgb(0%,0%,0%);fill-opacity:1;" d="M 38.753906 22.101562 C 38.851562 22.144531 38.976562 22.132812 39.019531 22.089844 C 39.074219 22.046875 38.992188 22.003906 38.839844 22.019531 C 38.683594 22.019531 38.644531 22.0625 38.753906 22.101562 Z M 38.753906 22.101562 "/>
<path style=" stroke:none;fill-rule:nonzero;fill:rgb(0%,0%,0%);fill-opacity:1;" d="M 38.199219 22.242188 C 38.296875 22.285156 38.421875 22.269531 38.460938 22.226562 C 38.519531 22.1875 38.433594 22.144531 38.28125 22.160156 C 38.128906 22.160156 38.085938 22.199219 38.199219 22.242188 Z M 38.199219 22.242188 "/>
<path style=" stroke:none;fill-rule:nonzero;fill:rgb(0%,0%,0%);fill-opacity:1;" d="M 37.503906 22.382812 C 37.585938 22.410156 37.753906 22.410156 37.851562 22.382812 C 37.933594 22.339844 37.863281 22.3125 37.671875 22.3125 C 37.476562 22.3125 37.40625 22.339844 37.503906 22.382812 Z M 37.503906 22.382812 "/>
<path style=" stroke:none;fill-rule:nonzero;fill:rgb(0%,0%,0%);fill-opacity:1;" d="M 36.949219 22.519531 C 37.042969 22.5625 37.171875 22.546875 37.210938 22.507812 C 37.265625 22.464844 37.183594 22.421875 37.03125 22.4375 C 36.878906 22.4375 36.835938 22.480469 36.949219 22.519531 Z M 36.949219 22.519531 "/>
<path style=" stroke:none;fill-rule:nonzero;fill:rgb(0%,0%,0%);fill-opacity:1;" d="M 36.390625 22.660156 C 36.488281 22.703125 36.613281 22.6875 36.65625 22.644531 C 36.710938 22.605469 36.628906 22.5625 36.476562 22.578125 C 36.320312 22.578125 36.28125 22.617188 36.390625 22.660156 Z M 36.390625 22.660156 "/>
<path style=" stroke:none;fill-rule:nonzero;fill:rgb(0%,0%,0%);fill-opacity:1;" d="M 35.835938 22.800781 C 35.933594 22.839844 36.058594 22.828125 36.101562 22.785156 C 36.15625 22.742188 36.070312 22.703125 35.917969 22.714844 C 35.765625 22.714844 35.722656 22.757812 35.835938 22.800781 Z M 35.835938 22.800781 "/>
<path style=" stroke:none;fill-rule:nonzero;fill:rgb(0%,0%,0%);fill-opacity:1;" d="M 35.140625 22.9375 C 35.222656 22.964844 35.390625 22.964844 35.488281 22.9375 C 35.570312 22.898438 35.503906 22.867188 35.308594 22.867188 C 35.113281 22.867188 35.042969 22.898438 35.140625 22.9375 Z M 35.140625 22.9375 "/>
<path style=" stroke:none;fill-rule:nonzero;fill:rgb(0%,0%,0%);fill-opacity:1;" d="M 34.585938 23.078125 C 34.683594 23.121094 34.808594 23.105469 34.847656 23.0625 C 34.902344 23.023438 34.820312 22.980469 34.667969 22.996094 C 34.515625 22.996094 34.472656 23.035156 34.585938 23.078125 Z M 34.585938 23.078125 "/>
<path style=" stroke:none;fill-rule:nonzero;fill:rgb(0%,0%,0%);fill-opacity:1;" d="M 34.027344 23.21875 C 34.125 23.257812 34.25 23.246094 34.292969 23.203125 C 34.347656 23.160156 34.265625 23.121094 34.113281 23.132812 C 33.960938 23.132812 33.917969 23.175781 34.027344 23.21875 Z M 34.027344 23.21875 "/>
<path style=" stroke:none;fill-rule:nonzero;fill:rgb(0%,0%,0%);fill-opacity:1;" d="M 100.988281 28.230469 C 98.320312 28.578125 95.871094 29.289062 94.132812 30.222656 C 89.351562 32.8125 86.476562 37.6875 86.460938 43.246094 C 86.460938 48.957031 89.519531 54.011719 94.496094 56.53125 C 95.707031 57.144531 97.957031 57.882812 99.457031 58.148438 C 101.210938 58.46875 104.433594 58.566406 106.3125 58.371094 C 109.398438 58.050781 111.691406 57.242188 115.375 55.207031 C 117.722656 53.898438 118.222656 53.734375 118.792969 54.09375 C 119.15625 54.34375 119.542969 54.304688 119.542969 54.039062 C 119.542969 53.832031 115.667969 48.050781 115.527344 48.050781 C 115.304688 48.050781 115.136719 48.398438 115.054688 48.996094 C 114.972656 49.707031 114.652344 50.082031 113.566406 50.835938 C 110.550781 52.898438 106.324219 53.925781 102.726562 53.496094 C 100.863281 53.257812 99.929688 52.996094 98.429688 52.269531 C 97.316406 51.742188 96.929688 51.449219 95.84375 50.363281 C 94.773438 49.304688 94.46875 48.898438 93.980469 47.898438 C 93.246094 46.378906 92.996094 45.179688 92.996094 43.230469 C 92.996094 40.070312 94.164062 37.492188 96.484375 35.558594 C 98.652344 33.773438 100.847656 33.09375 104.460938 33.09375 C 107.4375 33.078125 109.273438 33.496094 111.800781 34.761719 C 114.109375 35.917969 115.097656 36.796875 115.097656 37.730469 C 115.097656 38.273438 115.417969 38.734375 115.636719 38.496094 C 115.707031 38.425781 116.640625 37.046875 117.710938 35.433594 C 119.390625 32.898438 119.628906 32.480469 119.417969 32.355469 C 119.253906 32.242188 119.070312 32.285156 118.695312 32.492188 C 118.375 32.675781 118.085938 32.742188 117.863281 32.6875 C 117.683594 32.632812 116.625 32.089844 115.511719 31.476562 C 110.675781 28.800781 108.175781 28.105469 103.488281 28.160156 C 102.347656 28.160156 101.222656 28.203125 100.988281 28.230469 Z M 100.988281 28.230469 "/>
<path style=" stroke:none;fill-rule:nonzero;fill:rgb(0%,0%,0%);fill-opacity:1;" d="M 209.34375 33.007812 C 208.980469 33.886719 209.660156 33.84375 197.359375 33.84375 L 186.128906 33.84375 L 186.128906 34.191406 C 186.128906 34.402344 186.210938 34.539062 186.335938 34.539062 C 186.449219 34.539062 186.738281 34.722656 186.988281 34.945312 L 187.449219 35.347656 L 187.449219 56.574219 L 186.988281 56.976562 C 186.738281 57.199219 186.449219 57.382812 186.335938 57.382812 C 186.226562 57.382812 186.128906 57.507812 186.128906 57.660156 C 186.128906 57.925781 186.28125 57.9375 197.652344 57.964844 C 208.953125 58.007812 209.175781 58.007812 209.480469 58.285156 C 209.648438 58.441406 209.871094 58.734375 209.980469 58.941406 C 210.105469 59.164062 210.300781 59.332031 210.453125 59.332031 C 210.71875 59.332031 210.730469 59.21875 210.730469 55.78125 C 210.730469 52.324219 210.71875 52.226562 210.453125 52.226562 C 210.273438 52.226562 210.105469 52.382812 209.996094 52.675781 C 209.882812 52.925781 209.660156 53.257812 209.480469 53.414062 C 209.1875 53.675781 208.953125 53.691406 201.195312 53.734375 L 193.21875 53.773438 L 193.21875 47.773438 L 203.03125 47.773438 L 203.390625 48.148438 C 203.585938 48.371094 203.796875 48.675781 203.851562 48.84375 C 203.90625 49.039062 204.046875 49.164062 204.210938 49.164062 C 204.464844 49.164062 204.476562 49.023438 204.476562 45.683594 C 204.476562 42.367188 204.464844 42.199219 204.210938 42.199219 C 204.058594 42.199219 203.894531 42.367188 203.78125 42.617188 C 203.683594 42.855469 203.449219 43.175781 203.253906 43.316406 C 202.933594 43.578125 202.667969 43.59375 198.070312 43.59375 L 193.21875 43.59375 L 193.21875 38.160156 L 200.652344 38.160156 C 208.953125 38.160156 208.871094 38.148438 209.300781 39.054688 C 209.4375 39.359375 209.632812 39.554688 209.785156 39.554688 C 210.023438 39.554688 210.035156 39.34375 210.035156 36.074219 C 210.035156 32.757812 210.023438 32.589844 209.773438 32.589844 C 209.621094 32.589844 209.453125 32.757812 209.34375 33.007812 Z M 209.34375 33.007812 "/>
<path style=" stroke:none;fill-rule:nonzero;fill:rgb(0%,0%,0%);fill-opacity:1;" d="M 237.519531 33.035156 C 237.128906 33.96875 237.949219 33.914062 225.648438 33.957031 C 216.363281 33.984375 214.484375 34.023438 214.484375 34.179688 C 214.484375 34.277344 214.664062 34.441406 214.886719 34.539062 C 215.109375 34.625 215.417969 34.832031 215.554688 34.984375 C 215.792969 35.25 215.804688 35.820312 215.847656 45.597656 C 215.890625 57.132812 215.902344 56.824219 215 57.3125 C 213.929688 57.898438 214.207031 57.9375 218.65625 57.9375 C 222.101562 57.9375 222.824219 57.910156 222.824219 57.742188 C 222.824219 57.644531 222.632812 57.480469 222.410156 57.382812 C 222.171875 57.285156 221.851562 57.046875 221.714844 56.851562 C 221.449219 56.53125 221.433594 56.265625 221.433594 52.0625 L 221.433594 47.617188 L 226.425781 47.660156 C 231.929688 47.703125 231.75 47.675781 232.140625 48.621094 C 232.234375 48.84375 232.402344 49.023438 232.5 49.023438 C 232.667969 49.023438 232.695312 48.425781 232.695312 45.613281 C 232.695312 43.480469 232.640625 42.199219 232.554688 42.199219 C 232.488281 42.199219 232.292969 42.453125 232.140625 42.757812 C 231.984375 43.050781 231.734375 43.371094 231.597656 43.453125 C 231.417969 43.539062 229.511719 43.59375 226.382812 43.59375 L 221.433594 43.59375 L 221.433594 38.160156 L 229.054688 38.160156 C 237.503906 38.160156 237.101562 38.121094 237.503906 39.082031 C 237.617188 39.34375 237.796875 39.554688 237.90625 39.554688 C 238.089844 39.554688 238.117188 39.066406 238.117188 36.074219 C 238.117188 33.078125 238.089844 32.589844 237.90625 32.589844 C 237.796875 32.589844 237.617188 32.800781 237.519531 33.035156 Z M 237.519531 33.035156 "/>
<path style=" stroke:none;fill-rule:nonzero;fill:rgb(0%,0%,0%);fill-opacity:1;" d="M 356.144531 33.09375 C 355.8125 34.011719 356.257812 33.984375 343.96875 33.984375 C 334.308594 33.984375 332.917969 34.011719 332.917969 34.191406 C 332.917969 34.304688 333.070312 34.429688 333.265625 34.484375 C 333.460938 34.527344 333.765625 34.761719 333.960938 34.984375 L 334.308594 35.402344 L 334.308594 56.519531 L 333.960938 56.9375 C 333.765625 57.160156 333.460938 57.394531 333.265625 57.4375 C 333.070312 57.492188 332.917969 57.617188 332.917969 57.730469 C 332.917969 57.910156 334.445312 57.9375 344.511719 57.964844 L 356.105469 58.007812 L 356.453125 58.328125 C 356.644531 58.507812 356.839844 58.816406 356.882812 58.996094 C 356.9375 59.179688 357.0625 59.332031 357.175781 59.332031 C 357.355469 59.332031 357.382812 58.832031 357.382812 55.847656 C 357.382812 52.867188 357.355469 52.367188 357.175781 52.367188 C 357.0625 52.367188 356.9375 52.519531 356.882812 52.703125 C 356.839844 52.882812 356.644531 53.1875 356.453125 53.371094 L 356.105469 53.691406 L 347.984375 53.734375 L 339.867188 53.761719 L 339.867188 47.632812 L 344.566406 47.632812 C 347.332031 47.632812 349.460938 47.6875 349.765625 47.773438 C 350.167969 47.882812 350.335938 48.035156 350.53125 48.46875 C 350.683594 48.800781 350.878906 49.023438 351.03125 49.023438 C 351.253906 49.023438 351.265625 48.800781 351.238281 45.65625 C 351.210938 43.175781 351.15625 42.285156 351.03125 42.242188 C 350.933594 42.199219 350.765625 42.394531 350.65625 42.660156 C 350.265625 43.605469 350.363281 43.59375 344.84375 43.59375 L 339.867188 43.59375 L 339.867188 38.160156 L 347.5 38.160156 C 352.28125 38.160156 355.285156 38.21875 355.507812 38.300781 C 355.742188 38.382812 355.964844 38.648438 356.105469 38.996094 C 356.257812 39.34375 356.4375 39.554688 356.589844 39.554688 C 356.8125 39.554688 356.828125 39.289062 356.828125 36.074219 C 356.828125 32.8125 356.8125 32.589844 356.578125 32.589844 C 356.410156 32.589844 356.257812 32.773438 356.144531 33.09375 Z M 356.144531 33.09375 "/>
<path style=" stroke:none;fill-rule:nonzero;fill:rgb(0%,0%,0%);fill-opacity:1;" d="M 56.6875 32.9375 C 55.464844 33.382812 54.558594 34.277344 53.976562 35.585938 C 53.738281 36.101562 53.726562 36.796875 53.726562 45.613281 L 53.726562 55.082031 L 54.183594 56.03125 C 54.519531 56.699219 54.851562 57.132812 55.339844 57.519531 C 56.519531 58.453125 56.867188 58.507812 61.175781 58.46875 C 64.832031 58.425781 65.011719 58.414062 65.636719 58.105469 C 66.472656 57.6875 67.304688 56.851562 67.722656 56.015625 L 68.042969 55.363281 L 68.042969 35.863281 L 67.722656 35.238281 C 67.292969 34.402344 66.429688 33.539062 65.636719 33.132812 C 65 32.8125 64.902344 32.800781 61.09375 32.773438 C 58.046875 32.742188 57.089844 32.785156 56.6875 32.9375 Z M 56.6875 32.9375 "/>
<path style=" stroke:none;fill-rule:nonzero;fill:rgb(0%,0%,0%);fill-opacity:1;" d="M 135.042969 33.523438 C 129.148438 34.261719 124.839844 37.589844 123.519531 42.421875 C 123.199219 43.605469 123.0625 45.710938 123.1875 47.3125 C 123.574219 52.214844 126.773438 56.074219 131.832031 57.714844 C 135.003906 58.761719 139.617188 58.71875 142.828125 57.632812 C 145.050781 56.878906 147.375 55.277344 148.777344 53.550781 C 149.613281 52.519531 150.445312 50.90625 150.835938 49.554688 C 151.238281 48.105469 151.347656 45.335938 151.042969 43.621094 C 150.097656 38.1875 145.898438 34.441406 139.769531 33.566406 C 138.851562 33.441406 135.933594 33.414062 135.042969 33.523438 Z M 140.046875 38.355469 C 142.648438 39.191406 144.511719 41.128906 145.203125 43.691406 C 145.511719 44.820312 145.496094 47.199219 145.191406 48.257812 C 144.46875 50.78125 142.535156 52.773438 140.0625 53.550781 C 135.015625 55.167969 129.996094 52.464844 129.039062 47.644531 C 128.636719 45.585938 129.050781 43.148438 130.109375 41.503906 C 131.136719 39.902344 133.125 38.539062 135.128906 38.09375 C 136.460938 37.785156 138.644531 37.898438 140.046875 38.355469 Z M 140.046875 38.355469 "/>
<path style=" stroke:none;fill-rule:nonzero;fill:rgb(0%,0%,0%);fill-opacity:1;" d="M 252.351562 33.566406 C 247.429688 34.261719 243.566406 36.726562 241.757812 40.320312 C 240.769531 42.269531 240.394531 44.207031 240.519531 46.628906 C 240.617188 48.453125 240.9375 49.820312 241.578125 51.199219 C 243.871094 56.128906 249.75 59.011719 256.160156 58.382812 C 259.816406 58.023438 262.621094 56.824219 264.984375 54.597656 C 268.695312 51.128906 269.628906 45.152344 267.210938 40.335938 C 265.527344 36.992188 262.164062 34.582031 257.980469 33.773438 C 256.605469 33.507812 253.546875 33.398438 252.351562 33.566406 Z M 256.9375 38.160156 C 258.425781 38.539062 259.578125 39.191406 260.648438 40.265625 C 262.246094 41.851562 262.957031 43.957031 262.804688 46.617188 C 262.679688 48.816406 261.941406 50.402344 260.382812 51.921875 C 257.769531 54.429688 252.765625 54.777344 249.542969 52.675781 C 248.679688 52.101562 247.609375 50.945312 247.097656 50 C 245.914062 47.8125 245.871094 44.316406 247.027344 42.046875 C 247.554688 40.976562 249.125 39.375 250.167969 38.816406 C 251.90625 37.882812 254.78125 37.605469 256.9375 38.160156 Z M 256.9375 38.160156 "/>
<path style=" stroke:none;fill-rule:nonzero;fill:rgb(0%,0%,0%);fill-opacity:1;" d="M 313.359375 33.566406 C 307.964844 34.246094 303.90625 37.339844 302.335938 41.976562 C 300.195312 48.257812 303.351562 54.972656 309.578125 57.382812 C 311.496094 58.121094 313.234375 58.398438 315.890625 58.398438 C 319.949219 58.398438 321.601562 57.898438 326.800781 55.082031 C 327.734375 54.582031 328.164062 54.5 328.59375 54.722656 C 328.71875 54.792969 328.902344 54.804688 328.984375 54.761719 C 329.09375 54.695312 328.523438 53.746094 327.398438 52.117188 C 326.105469 50.207031 325.621094 49.609375 325.496094 49.707031 C 325.398438 49.792969 325.34375 50.042969 325.382812 50.277344 C 325.550781 51.394531 322.519531 53.160156 319.324219 53.832031 C 318.015625 54.09375 315.554688 54.09375 314.179688 53.832031 C 311.148438 53.21875 308.453125 50.933594 307.6875 48.300781 C 307.339844 47.117188 307.328125 44.820312 307.675781 43.664062 C 308.1875 41.9375 309.535156 40.238281 311.207031 39.21875 C 312.636719 38.34375 313.972656 37.996094 316.070312 37.910156 C 318.90625 37.8125 320.558594 38.160156 322.980469 39.359375 C 324.746094 40.238281 325.410156 40.878906 325.410156 41.742188 C 325.410156 41.976562 325.46875 42.214844 325.535156 42.257812 C 325.71875 42.367188 329.179688 37.285156 329.027344 37.132812 C 328.957031 37.0625 328.734375 37.074219 328.484375 37.171875 C 327.941406 37.410156 327.761719 37.339844 325.550781 36.140625 C 323.328125 34.917969 321.492188 34.191406 319.78125 33.816406 C 318.320312 33.507812 314.890625 33.371094 313.359375 33.566406 Z M 313.359375 33.566406 "/>
<path style=" stroke:none;fill-rule:nonzero;fill:rgb(0%,0%,0%);fill-opacity:1;" d="M 369.683594 33.578125 C 366.027344 34.039062 362.914062 35.863281 361.746094 38.230469 C 360.261719 41.253906 361.191406 45.027344 363.832031 46.726562 C 365.417969 47.742188 367.210938 48.132812 372.117188 48.539062 C 376.953125 48.941406 377.898438 49.121094 378.679688 49.832031 C 379.179688 50.292969 379.207031 50.347656 379.207031 51.167969 C 379.207031 52.355469 378.886719 52.800781 377.609375 53.414062 C 374.398438 54.945312 366.78125 54.152344 363.957031 52.003906 C 363.664062 51.78125 363.484375 51.503906 363.414062 51.183594 C 363.375 50.917969 363.25 50.695312 363.152344 50.695312 C 363 50.695312 360.71875 55.90625 360.71875 56.265625 C 360.71875 56.460938 360.871094 56.433594 361.191406 56.199219 C 361.609375 55.878906 361.957031 55.933594 363.484375 56.546875 C 368.292969 58.480469 373.230469 58.96875 377.675781 57.925781 C 380.136719 57.355469 382.613281 55.808594 383.640625 54.207031 C 385.265625 51.65625 384.917969 48.230469 382.792969 46.128906 C 381.847656 45.179688 381.445312 44.929688 380.164062 44.429688 C 378.582031 43.816406 376.703125 43.496094 372.921875 43.175781 C 366.960938 42.6875 366.054688 42.394531 365.902344 40.917969 C 365.679688 38.71875 368.851562 37.410156 373.519531 37.773438 C 377.09375 38.050781 380.695312 39.566406 380.957031 40.917969 C 381.136719 41.796875 381.375 41.519531 382.777344 38.773438 C 383.570312 37.242188 384.097656 36.058594 384.015625 36.03125 C 383.933594 36.003906 383.65625 36.074219 383.40625 36.199219 C 382.875 36.449219 382.890625 36.449219 379.664062 35.097656 C 376.132812 33.636719 373.046875 33.160156 369.683594 33.578125 Z M 369.683594 33.578125 "/>
<path style=" stroke:none;fill-rule:nonzero;fill:rgb(0%,0%,0%);fill-opacity:1;" d="M 155.128906 34.191406 C 155.128906 34.414062 155.214844 34.539062 155.351562 34.539062 C 155.464844 34.539062 155.753906 34.722656 155.976562 34.945312 L 156.382812 35.347656 L 156.382812 56.574219 L 155.976562 56.976562 C 155.753906 57.199219 155.464844 57.382812 155.351562 57.382812 C 155.226562 57.382812 155.128906 57.492188 155.128906 57.660156 C 155.128906 57.9375 155.226562 57.9375 163.304688 57.9375 C 172.089844 57.9375 173.046875 57.882812 175.175781 57.199219 C 178.816406 56.042969 181.261719 53.148438 182.042969 49.09375 C 182.359375 47.421875 182.359375 44.5 182.042969 42.839844 C 181.75 41.324219 181.097656 39.625 180.386719 38.550781 C 179.59375 37.367188 178.164062 36.085938 176.84375 35.402344 C 174.269531 34.066406 172.214844 33.84375 161.84375 33.84375 L 155.128906 33.84375 Z M 171.296875 38.480469 C 173.980469 39.109375 175.785156 41.058594 176.328125 43.925781 C 176.925781 47.019531 176.148438 50.179688 174.382812 51.78125 C 173.480469 52.617188 172.796875 52.964844 171.324219 53.355469 C 170.324219 53.621094 169.796875 53.648438 166.179688 53.664062 L 162.148438 53.691406 L 162.109375 46.101562 C 162.09375 41.921875 162.109375 38.425781 162.148438 38.316406 C 162.261719 38.035156 169.960938 38.175781 171.296875 38.480469 Z M 171.296875 38.480469 "/>
<path style=" stroke:none;fill-rule:nonzero;fill:rgb(0%,0%,0%);fill-opacity:1;" d="M 272.449219 34.152344 C 272.449219 34.246094 272.6875 34.457031 272.964844 34.609375 C 273.257812 34.761719 273.5625 35.042969 273.660156 35.238281 C 273.796875 35.5 273.839844 37.898438 273.839844 45.960938 C 273.839844 54.023438 273.796875 56.421875 273.660156 56.683594 C 273.5625 56.878906 273.257812 57.160156 272.964844 57.3125 C 271.894531 57.898438 272.171875 57.9375 276.621094 57.9375 C 281.070312 57.9375 281.347656 57.898438 280.277344 57.3125 C 279.414062 56.851562 279.402344 56.78125 279.402344 52.1875 L 279.402344 48.050781 L 282.429688 48.050781 L 285.449219 48.0625 L 286.90625 50.167969 C 290.589844 55.5 290.800781 55.820312 290.800781 56.394531 C 290.800781 56.949219 290.550781 57.269531 290.007812 57.4375 C 289.824219 57.492188 289.6875 57.632812 289.6875 57.742188 C 289.6875 57.910156 290.4375 57.9375 294.691406 57.9375 C 298.820312 57.9375 299.695312 57.910156 299.695312 57.742188 C 299.695312 57.644531 299.402344 57.453125 299.042969 57.3125 C 298.609375 57.144531 298.097656 56.769531 297.609375 56.265625 C 296.625 55.25 291.605469 48.246094 291.660156 47.953125 C 291.6875 47.8125 292.078125 47.617188 292.785156 47.421875 C 295.246094 46.714844 296.722656 45.640625 297.539062 43.96875 C 298.167969 42.6875 298.375 41.351562 298.179688 39.945312 C 297.761719 36.90625 296.25 35.222656 293.203125 34.375 C 292.148438 34.066406 291.898438 34.066406 282.292969 34.011719 C 274.257812 33.984375 272.449219 33.996094 272.449219 34.152344 Z M 290.839844 38.425781 C 291.148438 38.523438 291.605469 38.816406 291.882812 39.066406 C 292.398438 39.527344 292.398438 39.539062 292.4375 40.765625 C 292.535156 43.605469 291.8125 43.859375 283.683594 43.871094 L 279.402344 43.871094 L 279.402344 38.148438 L 284.863281 38.203125 C 288.726562 38.230469 290.464844 38.300781 290.839844 38.425781 Z M 290.839844 38.425781 "/>
</g>
</svg>
